# Blender 3.1.0
# www.blender.org
mtllib Home.mtl
o Cube
v -3.761373 -2.524278 2.811966
v -3.761373 2.524278 2.811966
v -3.761373 -2.524278 -2.811966
v -3.761373 2.524278 -2.811966
v 3.761373 -2.524278 2.811966
v 3.761373 2.524278 2.811966
v 3.761373 -2.524278 -2.811966
v 3.761373 2.524278 -2.811966
v 3.761373 2.524278 -2.811966
v 3.761373 -2.524278 -2.811966
v 3.761373 -2.524278 2.811966
v 3.761373 2.524278 2.811966
v 0.402990 -2.524278 -2.811966
v 0.402990 2.524278 -2.811966
v 0.402990 -2.524278 2.811966
v 0.402990 2.524278 2.811966
v 2.082181 2.524278 -2.811966
v 2.082181 -2.524278 2.811966
v 2.082181 -2.524278 -2.811966
v 2.082181 2.524278 2.811966
v -3.761373 0.000000 2.811966
v -3.761373 0.000000 -2.811966
v 3.761373 0.000000 -2.811966
v 3.761373 0.000000 2.811966
v 3.761373 0.000000 -2.811966
v 3.761373 0.000000 2.811966
v 0.402990 0.000000 2.811966
v 0.402990 0.000000 -2.811966
v 2.082181 0.000000 2.811966
v 2.082181 0.000000 -2.811966
v -1.679191 -2.524278 -2.811966
v -1.679191 2.524278 2.811966
v -1.679191 2.524278 -2.811966
v -1.679191 -2.524278 2.811966
v -1.679191 0.000000 -2.811966
v -1.679191 0.000000 2.811966
v -3.761373 -2.524278 2.051437
v -3.761373 2.524278 2.051437
v 3.761373 -2.524278 2.051437
v 3.761373 2.524278 2.051437
v 3.761373 -2.524278 2.051437
v 3.761373 2.524278 2.051437
v -2.010664 2.524278 -3.365680
v 0.402990 -2.524278 2.051437
v -4.480603 2.524278 3.305580
v 2.082181 -2.524278 2.051437
v 3.761373 0.000000 2.051437
v -3.761373 0.000000 2.051437
v -1.679191 -2.524278 2.051437
v -2.010664 2.524278 3.305580
v -3.761373 -2.357925 -2.811966
v 3.761373 -2.357925 -2.811966
v 3.761373 -2.357925 2.811966
v 3.761373 -2.357925 -2.811966
v 3.761373 -2.357925 2.811966
v 0.402990 -2.357925 2.811966
v 0.402990 -2.357925 -2.811966
v 2.082181 -2.357925 2.811966
v 2.082181 -2.357925 -2.811966
v -3.761373 -2.357925 2.811966
v -1.679191 -2.357925 2.811966
v -1.679191 -2.357925 -2.811966
v -3.761373 -2.357925 2.051437
v 3.761373 -2.357925 2.051437
v 2.082181 0.000000 2.422421
v 0.402990 0.000000 2.422421
v 0.402990 -2.357925 2.422421
v 2.082181 -2.357925 2.422421
v -3.761373 2.524278 0.430302
v -3.761373 2.524278 -1.190832
v 3.761373 -2.524278 0.430302
v 3.761373 -2.524278 -1.190832
v 3.761373 -2.524278 0.430302
v 3.761373 -2.524278 -1.190832
v -3.761373 0.000000 0.430302
v -3.761373 0.000000 -1.190832
v -3.761373 -2.524278 -1.190832
v -3.761373 -2.524278 0.430302
v 3.761373 2.524278 -1.190832
v 3.761373 2.524278 0.430302
v 3.761373 2.524278 -1.190832
v 3.761373 2.524278 0.430302
v 4.443079 2.524278 3.305580
v 4.443079 2.524278 2.403419
v 0.402990 -2.524278 -1.190832
v 0.402990 -2.524278 0.430302
v 4.443079 2.524278 -3.365680
v 2.451178 2.524278 -3.365680
v 2.082181 -2.524278 -1.190832
v 2.082181 -2.524278 0.430302
v 3.761373 0.000000 -1.190832
v 3.761373 0.000000 0.430302
v -1.679191 -2.524278 -1.190832
v -1.679191 -2.524278 0.430302
v -4.480603 2.524278 -3.365680
v -4.480603 2.524278 -1.442647
v 3.761373 -2.357925 -1.190832
v 3.761373 -2.357925 0.430302
v -3.761373 -2.357925 0.430302
v -3.761373 -2.357925 -1.190832
v -3.761373 3.003863 -1.190832
v -3.761373 3.003863 -2.811966
v 2.082181 3.003863 -2.811966
v 3.761373 3.003863 -2.811966
v 3.761373 3.003863 2.051437
v 3.761373 3.003863 2.811966
v -1.679191 3.003863 2.811966
v -3.761373 3.003863 2.811966
v -1.679191 3.003863 -2.811966
v 0.402990 3.003863 -2.811966
v 2.082181 3.003863 2.811966
v 0.402990 3.003863 2.811966
v 0.025442 5.595607 0.703099
v 1.647837 6.377533 -0.863203
v 0.348319 6.377533 -0.863203
v -3.761373 3.003863 2.051437
v 3.761373 3.003863 0.430302
v 1.647837 6.377533 0.391385
v 0.348319 6.377533 0.391385
v 1.647837 5.595607 0.391385
v -3.761373 3.003863 0.430302
v 3.761373 3.003863 -1.190832
v 1.647837 5.595607 -0.863203
v 0.348319 5.595607 0.391385
v 0.348319 5.595607 -0.863203
v 0.459276 2.524278 -3.365680
v 2.451178 2.524278 3.305580
v 0.459276 2.524278 3.305580
v -4.480603 2.524278 2.403419
v 4.443079 2.524278 0.480386
v -4.480603 3.003863 3.305580
v 4.443079 3.003863 -1.442647
v 4.443079 2.524278 -1.442647
v -4.480603 2.524278 0.480386
v 2.451178 3.003863 3.305580
v 4.443079 3.003863 3.305580
v -4.480603 3.003863 -1.442647
v -4.480603 3.003863 -3.365680
v -2.010664 3.003863 -3.365680
v -4.480603 3.003863 0.480386
v -4.480603 3.003863 2.403419
v 0.459276 3.003863 -3.365680
v -2.010664 3.003863 3.305580
v 0.459276 3.003863 3.305580
v 4.443079 3.003863 -3.365680
v 2.451178 3.003863 -3.365680
v 4.443079 3.003863 2.403419
v 4.443079 3.003863 0.480386
v -2.874460 4.485055 -0.863203
v -2.874460 4.485055 -2.117791
v 1.647837 4.485055 -2.117791
v 2.947355 4.485055 -2.117791
v 2.947355 4.485055 1.645973
v 2.947355 4.485055 2.234543
v -1.263071 4.485055 2.234543
v -2.874460 4.485055 2.234543
v -1.263071 4.485055 -2.117791
v 0.348319 4.485055 -2.117791
v 1.647837 4.485055 2.234543
v 0.348319 4.485055 2.234543
v 0.348319 4.485055 1.645973
v 1.647837 4.485055 1.645973
v -1.263071 4.485055 1.645973
v -2.874460 4.485055 1.645973
v 2.947355 4.485055 0.391385
v 0.348319 4.485055 0.391385
v 1.647837 4.485055 0.391385
v -1.263071 4.485055 0.391385
v -2.874460 4.485055 0.391385
v 2.947355 4.485055 -0.863203
v 0.348319 4.485055 -0.863203
v 1.647837 4.485055 -0.863203
v -1.263071 4.485055 -0.863203
v 1.970714 5.595607 0.703099
v 0.025442 5.595607 -1.174917
v 1.970714 5.595607 -1.174917
v 0.025442 6.377533 0.703099
v 1.970714 6.377533 0.703099
v 0.025442 6.377533 -1.174917
v 1.970714 6.377533 -1.174917
v 0.348319 5.835685 0.391385
v 1.647837 5.835685 0.391385
v 0.348319 5.835685 -0.863203
v 1.647837 5.835685 -0.863203
vn -3.7614 -0.0000 -0.0000
vn -0.0000 -0.0000 -2.8120
vn -0.0000 2.5243 -0.0000
vn -0.0000 -0.0000 2.8120
vn -0.0000 -2.5243 -0.0000
vn 3.7614 -0.0000 -0.0000
vn -3.4901 0.9412 -0.0000
vn -0.0000 0.9789 -2.5919
vn 3.5290 0.8735 -0.0000
vn -0.0000 0.8338 2.6541
vt 0.125000 0.750000
vt 0.375000 0.000000
vt 0.375000 1.000000
vt 0.625000 0.000000
vt 0.625000 1.000000
vt 0.375000 0.250000
vt 0.125000 0.500000
vt 0.625000 0.250000
vt 0.375000 0.750000
vt 0.625000 0.750000
vt 0.375000 0.500000
vt 0.625000 0.500000
vt 0.625000 0.500000
vt 0.375000 0.500000
vt 0.375000 0.750000
vt 0.625000 0.750000
vt 0.375000 0.388392
vt 0.263392 0.500000
vt 0.625000 0.388392
vt 0.263392 0.750000
vt 0.375000 0.861608
vt 0.625000 0.861608
vt 0.625000 0.444196
vt 0.319196 0.750000
vt 0.375000 0.805804
vt 0.375000 0.444196
vt 0.319196 0.500000
vt 0.625000 0.805804
vt 0.500000 1.000000
vt 0.500000 0.000000
vt 0.500000 0.250000
vt 0.500000 0.500000
vt 0.500000 0.750000
vt 0.500000 0.500000
vt 0.500000 0.750000
vt 0.500000 0.861608
vt 0.500000 0.388392
vt 0.500000 0.805804
vt 0.500000 0.444196
vt 0.375000 0.319196
vt 0.194196 0.500000
vt 0.625000 0.930804
vt 0.625000 0.319196
vt 0.194196 0.750000
vt 0.375000 0.930804
vt 0.500000 0.319196
vt 0.500000 0.930804
vt 0.125000 0.716192
vt 0.375000 0.033808
vt 0.625000 0.033808
vt 0.375000 0.716192
vt 0.625000 0.716192
vt 0.375000 0.716192
vt 0.625000 0.716192
vt 0.625000 0.319196
vt 0.263392 0.716192
vt 0.625000 0.000000
vt 0.625000 1.000000
vt 0.319196 0.716192
vt 0.500000 0.716192
vt 0.500000 0.033808
vt 0.194196 0.716192
vt 0.625000 0.930804
vt 0.383238 0.250000
vt 0.383238 0.500000
vt 0.383238 0.750000
vt 0.383238 0.500000
vt 0.383238 0.750000
vt 0.383238 0.861608
vt 0.383238 0.388392
vt 0.383238 0.805804
vt 0.383238 0.444196
vt 0.383238 0.000000
vt 0.383238 1.000000
vt 0.383238 0.930804
vt 0.383238 0.319196
vt 0.383238 0.033808
vt 0.383238 0.716192
vt 0.500000 0.805804
vt 0.500000 0.861608
vt 0.383238 0.861608
vt 0.383238 0.805804
vt 0.625000 0.105872
vt 0.625000 0.177936
vt 0.375000 0.644128
vt 0.375000 0.572064
vt 0.375000 0.644128
vt 0.375000 0.572064
vt 0.500000 0.105872
vt 0.500000 0.177936
vt 0.375000 0.177936
vt 0.125000 0.572064
vt 0.375000 0.105872
vt 0.125000 0.644128
vt 0.625000 0.572064
vt 0.625000 0.644128
vt 0.625000 0.572064
vt 0.625000 0.644128
vt 0.625000 0.750000
vt 0.625000 0.716192
vt 0.263392 0.572064
vt 0.263392 0.644128
vt 0.625000 0.500000
vt 0.625000 0.444196
vt 0.319196 0.572064
vt 0.319196 0.644128
vt 0.500000 0.572064
vt 0.500000 0.644128
vt 0.194196 0.572064
vt 0.194196 0.644128
vt 0.625000 0.250000
vt 0.625000 0.177936
vt 0.383238 0.572064
vt 0.383238 0.644128
vt 0.383238 0.105872
vt 0.383238 0.177936
vt 0.875000 0.572064
vt 0.875000 0.500000
vt 0.680804 0.500000
vt 0.625000 0.500000
vt 0.625000 0.716192
vt 0.625000 0.750000
vt 0.805804 0.750000
vt 0.875000 0.750000
vt 0.805804 0.500000
vt 0.736608 0.500000
vt 0.680804 0.750000
vt 0.736608 0.750000
vt 0.736608 0.644128
vt 0.680804 0.572064
vt 0.736608 0.572064
vt 0.875000 0.716192
vt 0.625000 0.644128
vt 0.680804 0.644128
vt 0.736608 0.644128
vt 0.680804 0.644128
vt 0.875000 0.644128
vt 0.625000 0.572064
vt 0.680804 0.572064
vt 0.736608 0.644128
vt 0.736608 0.572064
vt 0.625000 0.388392
vt 0.625000 0.805804
vt 0.625000 0.861608
vt 0.625000 0.033808
vt 0.625000 0.644128
vt 0.625000 1.000000
vt 0.625000 0.000000
vt 0.875000 0.750000
vt 0.625000 0.572064
vt 0.625000 0.572064
vt 0.625000 0.105872
vt 0.625000 0.805804
vt 0.680804 0.750000
vt 0.625000 0.750000
vt 0.625000 0.177936
vt 0.875000 0.572064
vt 0.625000 0.250000
vt 0.875000 0.500000
vt 0.625000 0.319196
vt 0.805804 0.500000
vt 0.875000 0.644128
vt 0.625000 0.105872
vt 0.625000 0.033808
vt 0.875000 0.716192
vt 0.625000 0.388392
vt 0.736608 0.500000
vt 0.625000 0.930804
vt 0.805804 0.750000
vt 0.625000 0.861608
vt 0.736608 0.750000
vt 0.625000 0.500000
vt 0.625000 0.444196
vt 0.680804 0.500000
vt 0.625000 0.716192
vt 0.625000 0.644128
vt 0.875000 0.572064
vt 0.875000 0.500000
vt 0.680804 0.500000
vt 0.625000 0.500000
vt 0.625000 0.716192
vt 0.625000 0.750000
vt 0.805804 0.750000
vt 0.875000 0.750000
vt 0.805804 0.500000
vt 0.736608 0.500000
vt 0.680804 0.750000
vt 0.736608 0.750000
vt 0.736608 0.716192
vt 0.680804 0.716192
vt 0.805804 0.716192
vt 0.875000 0.716192
vt 0.625000 0.644128
vt 0.736608 0.644128
vt 0.680804 0.644128
vt 0.805804 0.644128
vt 0.875000 0.644128
vt 0.625000 0.572064
vt 0.736608 0.572064
vt 0.680804 0.572064
vt 0.805804 0.572064
vt 0.680804 0.644128
vt 0.736608 0.572064
vt 0.680804 0.572064
vt 0.736608 0.644128
vt 0.680804 0.644128
vt 0.736608 0.572064
vt 0.680804 0.572064
vt 0.736608 0.644128
vt 0.680804 0.644128
vt 0.736608 0.572064
vt 0.680804 0.572064
s 0
f 76/90/1 70/84/1 4/8/1 22/31/1
f 30/39/2 17/23/2 8/12/2 23/32/2
f 40/52/3 6/10/3 12/16/3 42/54/3
f 36/47/4 32/42/4 2/5/4 21/29/4
f 46/59/5 39/51/5 5/9/5 18/24/5
f 14/19/5 33/43/5 43/55/5 126/142/5
f 47/60/6 42/54/6 12/16/6 26/35/6
f 23/32/3 8/12/3 9/13/3 25/34/3
f 53/66/3 5/9/3 11/15/3 55/68/3
f 72/86/3 7/11/3 10/14/3 74/88/3
f 122/138/3 117/133/3 148/176/3 132/150/3
f 49/62/5 44/56/5 15/20/5 34/44/5
f 29/38/4 20/28/4 16/22/4 27/36/4
f 35/46/2 33/43/2 14/19/2 28/37/2
f 24/33/4 6/10/4 20/28/4 29/38/4
f 102/118/3 109/125/3 139/161/3 138/159/3
f 44/56/5 46/59/5 18/24/5 15/20/5
f 28/37/2 14/19/2 17/23/2 30/39/2
f 57/70/2 28/37/2 30/39/2 59/72/2
f 53/66/4 24/33/4 29/38/4 58/71/4
f 62/76/2 35/46/2 28/37/2 57/70/2
f 58/71/1 29/38/1 65/79/1 68/82/1
f 6/10/3 24/33/3 26/35/3 12/16/3
f 52/65/3 23/32/3 25/34/3 54/67/3
f 64/78/6 47/60/6 26/35/6 55/68/6
f 61/75/4 36/47/4 21/29/4 60/74/4
f 59/72/2 30/39/2 23/32/2 52/65/2
f 100/116/1 76/90/1 22/31/1 51/64/1
f 56/69/4 27/36/4 36/47/4 61/75/4
f 51/64/2 22/31/2 35/46/2 62/76/2
f 22/31/2 4/8/2 33/43/2 35/46/2
f 37/48/5 49/62/5 34/44/5 1/1/5
f 104/120/3 122/138/3 132/150/3 145/172/3
f 27/36/4 16/22/4 32/42/4 36/47/4
f 8/12/5 17/23/5 88/104/5 87/103/5
f 78/94/5 94/110/5 49/62/5 37/48/5
f 60/73/1 21/30/1 48/61/1 63/77/1
f 98/114/6 92/108/6 47/60/6 64/78/6
f 86/102/5 90/106/5 46/59/5 44/56/5
f 112/128/3 107/123/3 143/169/3 144/171/3
f 94/110/5 86/102/5 44/56/5 49/62/5
f 121/137/3 101/117/3 137/157/3 140/162/3
f 5/9/3 39/51/3 41/53/3 11/15/3
f 92/108/6 82/98/6 42/54/6 47/60/6
f 33/43/5 4/8/5 95/111/5 43/55/5
f 90/106/5 71/85/5 39/51/5 46/59/5
f 80/96/3 40/52/3 42/54/3 82/98/3
f 21/30/1 2/4/1 38/50/1 48/61/1
f 73/87/6 98/114/6 64/78/6 41/53/6
f 1/2/1 60/73/1 63/77/1 37/49/1
f 3/6/2 51/64/2 62/76/2 31/40/2
f 15/21/4 56/69/4 61/75/4 34/45/4
f 77/91/1 100/116/1 51/64/1 3/6/1
f 19/26/2 59/72/2 52/65/2 7/11/2
f 34/45/4 61/75/4 60/74/4 1/3/4
f 41/53/6 64/78/6 55/68/6 11/15/6
f 7/11/3 52/65/3 54/67/3 10/14/3
f 18/25/4 58/71/4 56/69/4 15/21/4
f 31/40/2 62/76/2 57/70/2 13/17/2
f 5/9/4 53/66/4 58/71/4 18/25/4
f 13/17/2 57/70/2 59/72/2 19/26/2
f 24/33/3 53/66/3 55/68/3 26/35/3
f 68/82/4 65/79/4 66/80/4 67/81/4
f 27/36/6 56/69/6 67/81/6 66/80/6
f 56/69/3 58/71/3 68/82/3 67/81/3
f 29/38/5 27/36/5 66/80/5 65/79/5
f 37/49/1 63/77/1 99/115/1 78/93/1
f 78/93/1 99/115/1 100/116/1 77/91/1
f 10/14/6 54/67/6 97/113/6 74/88/6
f 74/88/6 97/113/6 98/114/6 73/87/6
f 8/12/3 79/95/3 81/97/3 9/13/3
f 79/95/3 80/96/3 82/98/3 81/97/3
f 19/27/5 7/11/5 72/86/5 89/105/5
f 89/105/5 72/86/5 71/85/5 90/106/5
f 20/28/5 6/10/5 83/99/5 127/143/5
f 40/52/5 80/96/5 130/146/5 84/100/5
f 25/34/6 9/13/6 81/97/6 91/107/6
f 91/107/6 81/97/6 82/98/6 92/108/6
f 116/132/3 121/137/3 140/162/3 141/165/3
f 32/42/5 16/22/5 128/144/5 50/63/5
f 31/41/5 13/18/5 85/101/5 93/109/5
f 93/109/5 85/101/5 86/102/5 94/110/5
f 106/122/3 111/127/3 135/154/3 136/155/3
f 4/8/5 70/84/5 96/112/5 95/111/5
f 13/18/5 19/27/5 89/105/5 85/101/5
f 85/101/5 89/105/5 90/106/5 86/102/5
f 54/67/6 25/34/6 91/107/6 97/113/6
f 97/113/6 91/107/6 92/108/6 98/114/6
f 3/7/5 31/41/5 93/109/5 77/92/5
f 77/92/5 93/109/5 94/110/5 78/94/5
f 38/50/5 2/4/5 45/57/5 129/145/5
f 110/126/3 103/119/3 146/174/3 142/167/3
f 63/77/1 48/61/1 75/89/1 99/115/1
f 99/115/1 75/89/1 76/90/1 100/116/1
f 39/51/3 71/85/3 73/87/3 41/53/3
f 71/85/3 72/86/3 74/88/3 73/87/3
f 48/61/1 38/50/1 69/83/1 75/89/1
f 75/89/1 69/83/1 70/84/1 76/90/1
f 102/118/7 101/117/7 149/177/7 150/178/7
f 121/137/7 116/132/7 164/192/7 169/197/7
f 103/119/8 110/126/8 158/186/8 151/179/8
f 105/121/9 117/133/9 165/193/9 153/181/9
f 116/132/7 108/124/7 156/184/7 164/192/7
f 112/128/10 111/127/10 159/187/10 160/188/10
f 110/126/8 109/125/8 157/185/8 158/186/8
f 109/125/8 102/118/8 150/178/8 157/185/8
f 108/124/10 107/123/10 155/183/10 156/184/10
f 117/133/9 122/138/9 170/198/9 165/193/9
f 107/123/10 112/128/10 160/188/10 155/183/10
f 106/122/9 105/121/9 153/181/9 154/182/9
f 122/138/9 104/120/9 152/180/9 170/198/9
f 104/120/8 103/119/8 151/179/8 152/180/8
f 101/117/7 121/137/7 169/197/7 149/177/7
f 111/127/10 106/122/10 154/182/10 159/187/10
f 45/58/4 50/63/4 143/168/4 131/147/4
f 129/145/1 45/57/1 131/148/1 141/164/1
f 130/146/6 133/151/6 132/150/6 148/176/6
f 95/111/1 96/112/1 137/156/1 138/158/1
f 127/143/4 83/99/4 136/155/4 135/153/4
f 133/151/6 87/103/6 145/172/6 132/150/6
f 128/144/4 127/143/4 135/153/4 144/170/4
f 83/99/6 84/100/6 147/175/6 136/155/6
f 96/112/1 134/152/1 140/163/1 137/156/1
f 43/55/2 95/111/2 138/158/2 139/160/2
f 126/142/2 43/55/2 139/160/2 142/166/2
f 134/152/1 129/145/1 141/164/1 140/163/1
f 88/104/2 126/142/2 142/166/2 146/173/2
f 50/63/4 128/144/4 144/170/4 143/168/4
f 87/103/2 88/104/2 146/173/2 145/172/2
f 84/100/6 130/146/6 148/176/6 147/175/6
f 108/124/3 116/132/3 141/165/3 131/149/3
f 79/95/5 8/12/5 87/103/5 133/151/5
f 6/10/5 40/52/5 84/100/5 83/99/5
f 101/117/3 102/118/3 138/159/3 137/157/3
f 117/133/3 105/121/3 147/175/3 148/176/3
f 80/96/5 79/95/5 133/151/5 130/146/5
f 103/119/3 104/120/3 145/172/3 146/174/3
f 16/22/5 20/28/5 127/143/5 128/144/5
f 105/121/3 106/122/3 136/155/3 147/175/3
f 2/5/5 32/42/5 50/63/5 45/58/5
f 107/123/3 108/124/3 131/149/3 143/169/3
f 69/83/5 38/50/5 129/145/5 134/152/5
f 109/125/3 110/126/3 142/167/3 139/161/3
f 70/84/5 69/83/5 134/152/5 96/112/5
f 111/127/3 112/128/3 144/171/3 135/154/3
f 17/23/5 14/19/5 126/142/5 88/104/5
f 163/191/3 164/192/3 156/184/3 155/183/3
f 162/190/3 161/189/3 160/188/3 159/187/3
f 153/181/3 162/190/3 159/187/3 154/182/3
f 161/189/3 163/191/3 155/183/3 160/188/3
f 166/194/3 168/196/3 163/191/3 161/189/3
f 165/193/3 167/195/3 162/190/3 153/181/3
f 167/195/3 166/194/3 161/189/3 162/190/3
f 168/196/3 169/197/3 164/192/3 163/191/3
f 157/185/3 150/178/3 149/177/3 173/201/3
f 173/201/3 149/177/3 169/197/3 168/196/3
f 151/179/3 158/186/3 171/199/3 172/200/3
f 172/200/2 171/199/2 125/141/2 123/139/2
f 152/180/3 151/179/3 172/200/3 170/198/3
f 170/198/3 172/200/3 167/195/3 165/193/3
f 158/186/3 157/185/3 173/201/3 171/199/3
f 171/199/3 173/201/3 168/196/3 166/194/3
f 124/140/5 120/136/5 174/202/5 113/129/5
f 166/194/4 167/195/4 120/136/4 124/140/4
f 167/195/6 172/200/6 123/139/6 120/136/6
f 171/199/1 166/194/1 124/140/1 125/141/1
f 115/131/6 119/135/6 181/209/6 183/211/6
f 115/131/3 114/130/3 180/208/3 179/207/3
f 120/136/5 123/139/5 176/204/5 174/202/5
f 119/135/3 115/131/3 179/207/3 177/205/3
f 174/202/6 176/204/6 180/208/6 178/206/6
f 113/129/4 174/202/4 178/206/4 177/205/4
f 175/203/1 113/129/1 177/205/1 179/207/1
f 176/204/2 175/203/2 179/207/2 180/208/2
f 125/141/5 124/140/5 113/129/5 175/203/5
f 114/130/3 118/134/3 178/206/3 180/208/3
f 123/139/5 125/141/5 175/203/5 176/204/5
f 118/134/3 119/135/3 177/205/3 178/206/3
f 184/212/3 183/211/3 181/209/3 182/210/3
f 114/130/4 115/131/4 183/211/4 184/212/4
f 118/134/1 114/130/1 184/212/1 182/210/1
f 119/135/2 118/134/2 182/210/2 181/209/2
