# Blender 3.1.0
# www.blender.org
mtllib N-gons.mtl
o Plane
v -0.595132 -1.249018 1.003574
v 1.404868 -1.249018 1.003574
v -1.611594 -1.249018 -0.005009
v 1.404868 -1.249018 -0.996426
v -0.603011 -1.249018 -1.005712
v -0.595132 1.249018 1.003574
v 1.404868 1.249018 1.003574
v -1.611594 1.249018 -0.005009
v 1.404868 1.249018 -0.996426
v -0.603011 1.249018 -1.005712
vn -0.0000 1.0000 -0.0000
vn -0.0000 -1.0000 -0.0000
vn 0.7043 -0.0000 -0.7099
vn -0.0000 -0.0000 -1.0000
vn -0.0046 -0.0000 1.0000
vn -1.0000 -0.0000 -0.0000
vn 0.7043 -0.0000 0.7099
vt 0.000000 0.000000
vt 0.000000 0.000000
vt 0.000000 0.000000
vt 0.000000 0.000000
vt 0.000000 0.000000
vt 0.000000 0.000000
vt 0.000000 0.000000
vt 0.000000 0.000000
vt 0.000000 0.000000
vt 0.000000 0.000000
s 0
f 5/5/1 3/3/1 1/1/1 2/2/1 4/4/1
f 10/10/2 9/9/2 7/7/2 6/6/2 8/8/2
f 1/1/3 3/3/3 8/8/3 6/6/3
f 2/2/4 1/1/4 6/6/4 7/7/4
f 5/5/5 4/4/5 9/9/5 10/10/5
f 4/4/6 2/2/6 7/7/6 9/9/6
f 3/3/7 5/5/7 10/10/7 8/8/7
