# Blender 3.1.0
# www.blender.org
mtllib Torus.mtl
o Torus
v 1.240000 0.000000 0.000000
v 1.191769 0.180000 0.000000
v 1.060000 0.311769 0.000000
v 0.880000 0.360000 0.000000
v 0.700000 0.311769 0.000000
v 0.568231 0.180000 0.000000
v 0.520000 0.000000 0.000000
v 0.568231 -0.180000 0.000000
v 0.700000 -0.311769 0.000000
v 0.880000 -0.360000 0.000000
v 1.060000 -0.311769 0.000000
v 1.191769 -0.180000 0.000000
v 1.165219 0.000000 -0.424105
v 1.119897 0.180000 -0.407609
v 0.996074 0.311769 -0.362541
v 0.826930 0.360000 -0.300978
v 0.657785 0.311769 -0.239414
v 0.533962 0.180000 -0.194346
v 0.488640 0.000000 -0.177850
v 0.533962 -0.180000 -0.194346
v 0.657785 -0.311769 -0.239414
v 0.826930 -0.360000 -0.300978
v 0.996074 -0.311769 -0.362541
v 1.119897 -0.180000 -0.407609
v 0.949895 0.000000 -0.797057
v 0.912948 0.180000 -0.766055
v 0.812007 0.311769 -0.681355
v 0.674119 0.360000 -0.565653
v 0.536231 0.311769 -0.449951
v 0.435290 0.180000 -0.365252
v 0.398343 0.000000 -0.334250
v 0.435290 -0.180000 -0.365252
v 0.536231 -0.311769 -0.449951
v 0.674119 -0.360000 -0.565653
v 0.812007 -0.311769 -0.681355
v 0.912948 -0.180000 -0.766055
v 0.620000 0.000000 -1.073872
v 0.595885 0.180000 -1.032102
v 0.530000 0.311769 -0.917987
v 0.440000 0.360000 -0.762102
v 0.350000 0.311769 -0.606218
v 0.284115 0.180000 -0.492102
v 0.260000 0.000000 -0.450333
v 0.284115 -0.180000 -0.492102
v 0.350000 -0.311769 -0.606218
v 0.440000 -0.360000 -0.762102
v 0.530000 -0.311769 -0.917987
v 0.595885 -0.180000 -1.032102
v 0.215324 0.000000 -1.221162
v 0.206949 0.180000 -1.173663
v 0.184067 0.311769 -1.043896
v 0.152810 0.360000 -0.866631
v 0.121554 0.311769 -0.689365
v 0.098672 0.180000 -0.559598
v 0.090297 0.000000 -0.512100
v 0.098672 -0.180000 -0.559598
v 0.121554 -0.311769 -0.689365
v 0.152810 -0.360000 -0.866631
v 0.184067 -0.311769 -1.043896
v 0.206949 -0.180000 -1.173663
v -0.215324 0.000000 -1.221162
v -0.206948 0.180000 -1.173663
v -0.184067 0.311769 -1.043896
v -0.152810 0.360000 -0.866631
v -0.121554 0.311769 -0.689365
v -0.098672 0.180000 -0.559598
v -0.090297 0.000000 -0.512100
v -0.098672 -0.180000 -0.559598
v -0.121554 -0.311769 -0.689365
v -0.152810 -0.360000 -0.866631
v -0.184067 -0.311769 -1.043896
v -0.206948 -0.180000 -1.173663
v -0.620000 0.000000 -1.073872
v -0.595884 0.180000 -1.032102
v -0.530000 0.311769 -0.917987
v -0.440000 0.360000 -0.762102
v -0.350000 0.311769 -0.606218
v -0.284115 0.180000 -0.492102
v -0.260000 0.000000 -0.450333
v -0.284115 -0.180000 -0.492102
v -0.350000 -0.311769 -0.606218
v -0.440000 -0.360000 -0.762102
v -0.530000 -0.311769 -0.917987
v -0.595884 -0.180000 -1.032102
v -0.949895 0.000000 -0.797057
v -0.912948 0.180000 -0.766055
v -0.812007 0.311769 -0.681355
v -0.674119 0.360000 -0.565653
v -0.536231 0.311769 -0.449951
v -0.435290 0.180000 -0.365252
v -0.398343 0.000000 -0.334250
v -0.435290 -0.180000 -0.365252
v -0.536231 -0.311769 -0.449951
v -0.674119 -0.360000 -0.565653
v -0.812007 -0.311769 -0.681355
v -0.912948 -0.180000 -0.766055
v -1.165219 0.000000 -0.424105
v -1.119897 0.180000 -0.407609
v -0.996074 0.311769 -0.362542
v -0.826929 0.360000 -0.300978
v -0.657785 0.311769 -0.239414
v -0.533962 0.180000 -0.194347
v -0.488640 0.000000 -0.177851
v -0.533962 -0.180000 -0.194347
v -0.657785 -0.311769 -0.239414
v -0.826929 -0.360000 -0.300978
v -0.996074 -0.311769 -0.362542
v -1.119897 -0.180000 -0.407609
v -1.240000 0.000000 -0.000000
v -1.191769 0.180000 -0.000000
v -1.060000 0.311769 -0.000000
v -0.880000 0.360000 -0.000000
v -0.700000 0.311769 -0.000000
v -0.568231 0.180000 -0.000000
v -0.520000 0.000000 -0.000000
v -0.568231 -0.180000 -0.000000
v -0.700000 -0.311769 -0.000000
v -0.880000 -0.360000 -0.000000
v -1.060000 -0.311769 -0.000000
v -1.191769 -0.180000 -0.000000
v -1.165219 0.000000 0.424105
v -1.119897 0.180000 0.407609
v -0.996074 0.311769 0.362541
v -0.826930 0.360000 0.300978
v -0.657785 0.311769 0.239414
v -0.533962 0.180000 0.194346
v -0.488640 0.000000 0.177850
v -0.533962 -0.180000 0.194346
v -0.657785 -0.311769 0.239414
v -0.826930 -0.360000 0.300978
v -0.996074 -0.311769 0.362541
v -1.119897 -0.180000 0.407609
v -0.949895 0.000000 0.797056
v -0.912948 0.180000 0.766054
v -0.812007 0.311769 0.681355
v -0.674119 0.360000 0.565653
v -0.536231 0.311769 0.449951
v -0.435290 0.180000 0.365252
v -0.398343 0.000000 0.334249
v -0.435290 -0.180000 0.365252
v -0.536231 -0.311769 0.449951
v -0.674119 -0.360000 0.565653
v -0.812007 -0.311769 0.681355
v -0.912948 -0.180000 0.766054
v -0.620000 0.000000 1.073872
v -0.595884 0.180000 1.032102
v -0.530000 0.311769 0.917987
v -0.440000 0.360000 0.762102
v -0.350000 0.311769 0.606218
v -0.284115 0.180000 0.492102
v -0.260000 0.000000 0.450333
v -0.284115 -0.180000 0.492102
v -0.350000 -0.311769 0.606218
v -0.440000 -0.360000 0.762102
v -0.530000 -0.311769 0.917987
v -0.595884 -0.180000 1.032102
v -0.215324 0.000000 1.221162
v -0.206948 0.180000 1.173663
v -0.184067 0.311769 1.043896
v -0.152810 0.360000 0.866631
v -0.121554 0.311769 0.689365
v -0.098672 0.180000 0.559598
v -0.090297 0.000000 0.512100
v -0.098672 -0.180000 0.559598
v -0.121554 -0.311769 0.689365
v -0.152810 -0.360000 0.866631
v -0.184067 -0.311769 1.043896
v -0.206948 -0.180000 1.173663
v 0.215324 0.000000 1.221162
v 0.206949 0.180000 1.173663
v 0.184067 0.311769 1.043896
v 0.152810 0.360000 0.866631
v 0.121554 0.311769 0.689365
v 0.098672 0.180000 0.559598
v 0.090297 0.000000 0.512100
v 0.098672 -0.180000 0.559598
v 0.121554 -0.311769 0.689365
v 0.152810 -0.360000 0.866631
v 0.184067 -0.311769 1.043896
v 0.206949 -0.180000 1.173663
v 0.620000 0.000000 1.073872
v 0.595885 0.180000 1.032102
v 0.530000 0.311769 0.917987
v 0.440000 0.360000 0.762102
v 0.350000 0.311769 0.606218
v 0.284115 0.180000 0.492102
v 0.260000 0.000000 0.450333
v 0.284115 -0.180000 0.492102
v 0.350000 -0.311769 0.606218
v 0.440000 -0.360000 0.762102
v 0.530000 -0.311769 0.917987
v 0.595885 -0.180000 1.032102
v 0.949895 0.000000 0.797057
v 0.912948 0.180000 0.766055
v 0.812007 0.311769 0.681355
v 0.674119 0.360000 0.565653
v 0.536231 0.311769 0.449951
v 0.435290 0.180000 0.365252
v 0.398343 0.000000 0.334250
v 0.435290 -0.180000 0.365252
v 0.536231 -0.311769 0.449951
v 0.674119 -0.360000 0.565653
v 0.812007 -0.311769 0.681355
v 0.912948 -0.180000 0.766055
v 1.165219 0.000000 0.424105
v 1.119897 0.180000 0.407609
v 0.996074 0.311769 0.362541
v 0.826929 0.360000 0.300978
v 0.657785 0.311769 0.239414
v 0.533962 0.180000 0.194346
v 0.488640 0.000000 0.177851
v 0.533962 -0.180000 0.194346
v 0.657785 -0.311769 0.239414
v 0.826929 -0.360000 0.300978
v 0.996074 -0.311769 0.362541
v 1.119897 -0.180000 0.407609
vn 0.9522 0.2551 -0.1679
vn 0.7017 0.7017 -0.1237
vn 0.2586 0.9649 -0.0456
vn -0.2586 0.9649 0.0456
vn -0.7017 0.7017 0.1237
vn -0.9522 0.2551 0.1679
vn -0.9522 -0.2551 0.1679
vn -0.7017 -0.7017 0.1237
vn -0.2586 -0.9649 0.0456
vn 0.2586 -0.9649 -0.0456
vn 0.7017 -0.7017 -0.1237
vn 0.9522 -0.2551 -0.1679
vn 0.8374 0.2551 -0.4835
vn 0.6170 0.7017 -0.3562
vn 0.2274 0.9649 -0.1313
vn -0.2274 0.9649 0.1313
vn -0.6170 0.7017 0.3562
vn -0.8374 0.2551 0.4835
vn -0.8374 -0.2551 0.4835
vn -0.6170 -0.7017 0.3562
vn -0.2274 -0.9649 0.1313
vn 0.2274 -0.9649 -0.1313
vn 0.6170 -0.7017 -0.3562
vn 0.8374 -0.2551 -0.4835
vn 0.6215 0.2551 -0.7407
vn 0.4580 0.7017 -0.5458
vn 0.1688 0.9649 -0.2011
vn -0.1688 0.9649 0.2011
vn -0.4580 0.7017 0.5458
vn -0.6215 0.2551 0.7407
vn -0.6215 -0.2551 0.7407
vn -0.4580 -0.7017 0.5458
vn -0.1688 -0.9649 0.2011
vn 0.1688 -0.9649 -0.2011
vn 0.4580 -0.7017 -0.5458
vn 0.6215 -0.2551 -0.7407
vn 0.3307 0.2551 -0.9086
vn 0.2437 0.7017 -0.6695
vn 0.0898 0.9649 -0.2467
vn -0.0898 0.9649 0.2467
vn -0.2437 0.7017 0.6695
vn -0.3307 0.2551 0.9086
vn -0.3307 -0.2551 0.9086
vn -0.2437 -0.7017 0.6695
vn -0.0898 -0.9649 0.2467
vn 0.0898 -0.9649 -0.2467
vn 0.2437 -0.7017 -0.6695
vn 0.3307 -0.2551 -0.9086
vn -0.0000 0.2551 -0.9669
vn -0.0000 0.7017 -0.7125
vn -0.0000 0.9649 -0.2625
vn -0.0000 0.9649 0.2625
vn -0.0000 0.7017 0.7125
vn -0.0000 0.2551 0.9669
vn -0.0000 -0.2551 0.9669
vn -0.0000 -0.7017 0.7125
vn -0.0000 -0.9649 0.2625
vn -0.0000 -0.9649 -0.2625
vn -0.0000 -0.7017 -0.7125
vn -0.0000 -0.2551 -0.9669
vn -0.3307 0.2551 -0.9086
vn -0.2437 0.7017 -0.6695
vn -0.0898 0.9649 -0.2467
vn 0.0898 0.9649 0.2467
vn 0.2437 0.7017 0.6695
vn 0.3307 0.2551 0.9086
vn 0.3307 -0.2551 0.9086
vn 0.2437 -0.7017 0.6695
vn 0.0898 -0.9649 0.2467
vn -0.0898 -0.9649 -0.2467
vn -0.2437 -0.7017 -0.6695
vn -0.3307 -0.2551 -0.9086
vn -0.6215 0.2551 -0.7407
vn -0.4580 0.7017 -0.5458
vn -0.1688 0.9649 -0.2011
vn 0.1688 0.9649 0.2011
vn 0.4580 0.7017 0.5458
vn 0.6215 0.2551 0.7407
vn 0.6215 -0.2551 0.7407
vn 0.4580 -0.7017 0.5458
vn 0.1688 -0.9649 0.2011
vn -0.1688 -0.9649 -0.2011
vn -0.4580 -0.7017 -0.5458
vn -0.6215 -0.2551 -0.7407
vn -0.8374 0.2551 -0.4835
vn -0.6170 0.7017 -0.3562
vn -0.2274 0.9649 -0.1313
vn 0.2274 0.9649 0.1313
vn 0.6170 0.7017 0.3562
vn 0.8374 0.2551 0.4835
vn 0.8374 -0.2551 0.4835
vn 0.6170 -0.7017 0.3562
vn 0.2274 -0.9649 0.1313
vn -0.2274 -0.9649 -0.1313
vn -0.6170 -0.7017 -0.3562
vn -0.8374 -0.2551 -0.4835
vn -0.9522 0.2551 -0.1679
vn -0.7017 0.7017 -0.1237
vn -0.2585 0.9649 -0.0456
vn 0.2585 0.9649 0.0456
vn 0.7017 0.7017 0.1237
vn 0.9522 0.2551 0.1679
vn 0.9522 -0.2551 0.1679
vn 0.7017 -0.7017 0.1237
vn 0.2585 -0.9649 0.0456
vn -0.2586 -0.9649 -0.0456
vn -0.7017 -0.7017 -0.1237
vn -0.9522 -0.2551 -0.1679
vn 0.2585 0.9649 -0.0456
vn 0.2585 -0.9649 -0.0456
vn 0.2586 0.9649 0.0456
vn -0.2586 0.9649 -0.0456
vn 0.2586 -0.9649 0.0456
vt 0.500000 0.500000
vt 0.500000 0.583333
vt 0.500000 0.666667
vt 0.500000 0.750000
vt 0.500000 0.833333
vt 0.500000 0.916667
vt 0.500000 1.000000
vt 0.500000 0.000000
vt 0.500000 0.083333
vt 0.500000 0.166667
vt 0.500000 0.250000
vt 0.500000 0.333333
vt 0.500000 0.416667
vt 0.555556 0.500000
vt 0.555556 0.583333
vt 0.555556 0.666667
vt 0.555556 0.750000
vt 0.555556 0.833333
vt 0.555556 0.916667
vt 0.555556 1.000000
vt 0.555556 0.000000
vt 0.555556 0.083333
vt 0.555556 0.166667
vt 0.555556 0.250000
vt 0.555556 0.333333
vt 0.555556 0.416667
vt 0.611111 0.500000
vt 0.611111 0.583333
vt 0.611111 0.666667
vt 0.611111 0.750000
vt 0.611111 0.833333
vt 0.611111 0.916667
vt 0.611111 1.000000
vt 0.611111 0.000000
vt 0.611111 0.083333
vt 0.611111 0.166667
vt 0.611111 0.250000
vt 0.611111 0.333333
vt 0.611111 0.416667
vt 0.666667 0.500000
vt 0.666667 0.583333
vt 0.666667 0.666667
vt 0.666667 0.750000
vt 0.666667 0.833333
vt 0.666667 0.916667
vt 0.666667 1.000000
vt 0.666667 0.000000
vt 0.666667 0.083333
vt 0.666667 0.166667
vt 0.666667 0.250000
vt 0.666667 0.333333
vt 0.666667 0.416667
vt 0.722222 0.500000
vt 0.722222 0.583333
vt 0.722222 0.666667
vt 0.722222 0.750000
vt 0.722222 0.833333
vt 0.722222 0.916667
vt 0.722222 1.000000
vt 0.722222 0.000000
vt 0.722222 0.083333
vt 0.722222 0.166667
vt 0.722222 0.250000
vt 0.722222 0.333333
vt 0.722222 0.416667
vt 0.777778 0.500000
vt 0.777778 0.583333
vt 0.777778 0.666667
vt 0.777778 0.750000
vt 0.777778 0.833333
vt 0.777778 0.916667
vt 0.777778 1.000000
vt 0.777778 0.000000
vt 0.777778 0.083333
vt 0.777778 0.166667
vt 0.777778 0.250000
vt 0.777778 0.333333
vt 0.777778 0.416667
vt 0.833333 0.500000
vt 0.833333 0.583333
vt 0.833333 0.666667
vt 0.833333 0.750000
vt 0.833333 0.833333
vt 0.833333 0.916667
vt 0.833333 1.000000
vt 0.833333 0.000000
vt 0.833333 0.083333
vt 0.833333 0.166667
vt 0.833333 0.250000
vt 0.833333 0.333333
vt 0.833333 0.416667
vt 0.888889 0.500000
vt 0.888889 0.583333
vt 0.888889 0.666667
vt 0.888889 0.750000
vt 0.888889 0.833333
vt 0.888889 0.916667
vt 0.888889 1.000000
vt 0.888889 0.000000
vt 0.888889 0.083333
vt 0.888889 0.166667
vt 0.888889 0.250000
vt 0.888889 0.333333
vt 0.888889 0.416667
vt 0.944444 0.500000
vt 0.944444 0.583333
vt 0.944444 0.666667
vt 0.944444 0.750000
vt 0.944444 0.833333
vt 0.944444 0.916667
vt 0.944444 1.000000
vt 0.944444 0.000000
vt 0.944444 0.083333
vt 0.944444 0.166667
vt 0.944444 0.250000
vt 0.944444 0.333333
vt 0.944444 0.416667
vt 1.000000 0.500000
vt 0.000000 0.500000
vt 1.000000 0.583333
vt 0.000000 0.583333
vt 1.000000 0.666667
vt 0.000000 0.666667
vt 1.000000 0.750000
vt 0.000000 0.750000
vt 1.000000 0.833333
vt 0.000000 0.833333
vt 1.000000 0.916667
vt 0.000000 0.916667
vt 1.000000 1.000000
vt 1.000000 0.000000
vt 0.000000 1.000000
vt 0.000000 0.000000
vt 1.000000 0.083333
vt 0.000000 0.083333
vt 1.000000 0.166667
vt 0.000000 0.166667
vt 1.000000 0.250000
vt 0.000000 0.250000
vt 1.000000 0.333333
vt 0.000000 0.333333
vt 1.000000 0.416667
vt 0.000000 0.416667
vt 0.055556 0.500000
vt 0.055556 0.583333
vt 0.055556 0.666667
vt 0.055556 0.750000
vt 0.055556 0.833333
vt 0.055556 0.916667
vt 0.055556 1.000000
vt 0.055556 0.000000
vt 0.055556 0.083333
vt 0.055556 0.166667
vt 0.055556 0.250000
vt 0.055556 0.333333
vt 0.055556 0.416667
vt 0.111111 0.500000
vt 0.111111 0.583333
vt 0.111111 0.666667
vt 0.111111 0.750000
vt 0.111111 0.833333
vt 0.111111 0.916667
vt 0.111111 1.000000
vt 0.111111 0.000000
vt 0.111111 0.083333
vt 0.111111 0.166667
vt 0.111111 0.250000
vt 0.111111 0.333333
vt 0.111111 0.416667
vt 0.166667 0.500000
vt 0.166667 0.583333
vt 0.166667 0.666667
vt 0.166667 0.750000
vt 0.166667 0.833333
vt 0.166667 0.916667
vt 0.166667 1.000000
vt 0.166667 0.000000
vt 0.166667 0.083333
vt 0.166667 0.166667
vt 0.166667 0.250000
vt 0.166667 0.333333
vt 0.166667 0.416667
vt 0.222222 0.500000
vt 0.222222 0.583333
vt 0.222222 0.666667
vt 0.222222 0.750000
vt 0.222222 0.833333
vt 0.222222 0.916667
vt 0.222222 1.000000
vt 0.222222 0.000000
vt 0.222222 0.083333
vt 0.222222 0.166667
vt 0.222222 0.250000
vt 0.222222 0.333333
vt 0.222222 0.416667
vt 0.277778 0.500000
vt 0.277778 0.583333
vt 0.277778 0.666667
vt 0.277778 0.750000
vt 0.277778 0.833333
vt 0.277778 0.916667
vt 0.277778 1.000000
vt 0.277778 0.000000
vt 0.277778 0.083333
vt 0.277778 0.166667
vt 0.277778 0.250000
vt 0.277778 0.333333
vt 0.277778 0.416667
vt 0.333333 0.500000
vt 0.333333 0.583333
vt 0.333333 0.666667
vt 0.333333 0.750000
vt 0.333333 0.833333
vt 0.333333 0.916667
vt 0.333333 1.000000
vt 0.333333 0.000000
vt 0.333333 0.083333
vt 0.333333 0.166667
vt 0.333333 0.250000
vt 0.333333 0.333333
vt 0.333333 0.416667
vt 0.388889 0.500000
vt 0.388889 0.583333
vt 0.388889 0.666667
vt 0.388889 0.750000
vt 0.388889 0.833333
vt 0.388889 0.916667
vt 0.388889 1.000000
vt 0.388889 0.000000
vt 0.388889 0.083333
vt 0.388889 0.166667
vt 0.388889 0.250000
vt 0.388889 0.333333
vt 0.388889 0.416667
vt 0.444444 0.500000
vt 0.444444 0.583333
vt 0.444444 0.666667
vt 0.444444 0.750000
vt 0.444444 0.833333
vt 0.444444 0.916667
vt 0.444444 1.000000
vt 0.444444 0.000000
vt 0.444444 0.083333
vt 0.444444 0.166667
vt 0.444444 0.250000
vt 0.444444 0.333333
vt 0.444444 0.416667
s 0
f 1/1/1 13/14/1 14/15/1 2/2/1
f 2/2/2 14/15/2 15/16/2 3/3/2
f 3/3/3 15/16/3 16/17/3 4/4/3
f 4/4/4 16/17/4 17/18/4 5/5/4
f 5/5/5 17/18/5 18/19/5 6/6/5
f 6/6/6 18/19/6 19/20/6 7/7/6
f 7/8/7 19/21/7 20/22/7 8/9/7
f 8/9/8 20/22/8 21/23/8 9/10/8
f 9/10/9 21/23/9 22/24/9 10/11/9
f 10/11/10 22/24/10 23/25/10 11/12/10
f 11/12/11 23/25/11 24/26/11 12/13/11
f 12/13/12 24/26/12 13/14/12 1/1/12
f 13/14/13 25/27/13 26/28/13 14/15/13
f 14/15/14 26/28/14 27/29/14 15/16/14
f 15/16/15 27/29/15 28/30/15 16/17/15
f 16/17/16 28/30/16 29/31/16 17/18/16
f 17/18/17 29/31/17 30/32/17 18/19/17
f 18/19/18 30/32/18 31/33/18 19/20/18
f 19/21/19 31/34/19 32/35/19 20/22/19
f 20/22/20 32/35/20 33/36/20 21/23/20
f 21/23/21 33/36/21 34/37/21 22/24/21
f 22/24/22 34/37/22 35/38/22 23/25/22
f 23/25/23 35/38/23 36/39/23 24/26/23
f 24/26/24 36/39/24 25/27/24 13/14/24
f 25/27/25 37/40/25 38/41/25 26/28/25
f 26/28/26 38/41/26 39/42/26 27/29/26
f 27/29/27 39/42/27 40/43/27 28/30/27
f 28/30/28 40/43/28 41/44/28 29/31/28
f 29/31/29 41/44/29 42/45/29 30/32/29
f 30/32/30 42/45/30 43/46/30 31/33/30
f 31/34/31 43/47/31 44/48/31 32/35/31
f 32/35/32 44/48/32 45/49/32 33/36/32
f 33/36/33 45/49/33 46/50/33 34/37/33
f 34/37/34 46/50/34 47/51/34 35/38/34
f 35/38/35 47/51/35 48/52/35 36/39/35
f 36/39/36 48/52/36 37/40/36 25/27/36
f 37/40/37 49/53/37 50/54/37 38/41/37
f 38/41/38 50/54/38 51/55/38 39/42/38
f 39/42/39 51/55/39 52/56/39 40/43/39
f 40/43/40 52/56/40 53/57/40 41/44/40
f 41/44/41 53/57/41 54/58/41 42/45/41
f 42/45/42 54/58/42 55/59/42 43/46/42
f 43/47/43 55/60/43 56/61/43 44/48/43
f 44/48/44 56/61/44 57/62/44 45/49/44
f 45/49/45 57/62/45 58/63/45 46/50/45
f 46/50/46 58/63/46 59/64/46 47/51/46
f 47/51/47 59/64/47 60/65/47 48/52/47
f 48/52/48 60/65/48 49/53/48 37/40/48
f 49/53/49 61/66/49 62/67/49 50/54/49
f 50/54/50 62/67/50 63/68/50 51/55/50
f 51/55/51 63/68/51 64/69/51 52/56/51
f 52/56/52 64/69/52 65/70/52 53/57/52
f 53/57/53 65/70/53 66/71/53 54/58/53
f 54/58/54 66/71/54 67/72/54 55/59/54
f 55/60/55 67/73/55 68/74/55 56/61/55
f 56/61/56 68/74/56 69/75/56 57/62/56
f 57/62/57 69/75/57 70/76/57 58/63/57
f 58/63/58 70/76/58 71/77/58 59/64/58
f 59/64/59 71/77/59 72/78/59 60/65/59
f 60/65/60 72/78/60 61/66/60 49/53/60
f 61/66/61 73/79/61 74/80/61 62/67/61
f 62/67/62 74/80/62 75/81/62 63/68/62
f 63/68/63 75/81/63 76/82/63 64/69/63
f 64/69/64 76/82/64 77/83/64 65/70/64
f 65/70/65 77/83/65 78/84/65 66/71/65
f 66/71/66 78/84/66 79/85/66 67/72/66
f 67/73/67 79/86/67 80/87/67 68/74/67
f 68/74/68 80/87/68 81/88/68 69/75/68
f 69/75/69 81/88/69 82/89/69 70/76/69
f 70/76/70 82/89/70 83/90/70 71/77/70
f 71/77/71 83/90/71 84/91/71 72/78/71
f 72/78/72 84/91/72 73/79/72 61/66/72
f 73/79/73 85/92/73 86/93/73 74/80/73
f 74/80/74 86/93/74 87/94/74 75/81/74
f 75/81/75 87/94/75 88/95/75 76/82/75
f 76/82/76 88/95/76 89/96/76 77/83/76
f 77/83/77 89/96/77 90/97/77 78/84/77
f 78/84/78 90/97/78 91/98/78 79/85/78
f 79/86/79 91/99/79 92/100/79 80/87/79
f 80/87/80 92/100/80 93/101/80 81/88/80
f 81/88/81 93/101/81 94/102/81 82/89/81
f 82/89/82 94/102/82 95/103/82 83/90/82
f 83/90/83 95/103/83 96/104/83 84/91/83
f 84/91/84 96/104/84 85/92/84 73/79/84
f 85/92/85 97/105/85 98/106/85 86/93/85
f 86/93/86 98/106/86 99/107/86 87/94/86
f 87/94/87 99/107/87 100/108/87 88/95/87
f 88/95/88 100/108/88 101/109/88 89/96/88
f 89/96/89 101/109/89 102/110/89 90/97/89
f 90/97/90 102/110/90 103/111/90 91/98/90
f 91/99/91 103/112/91 104/113/91 92/100/91
f 92/100/92 104/113/92 105/114/92 93/101/92
f 93/101/93 105/114/93 106/115/93 94/102/93
f 94/102/94 106/115/94 107/116/94 95/103/94
f 95/103/95 107/116/95 108/117/95 96/104/95
f 96/104/96 108/117/96 97/105/96 85/92/96
f 97/105/97 109/118/97 110/120/97 98/106/97
f 98/106/98 110/120/98 111/122/98 99/107/98
f 99/107/99 111/122/99 112/124/99 100/108/99
f 100/108/100 112/124/100 113/126/100 101/109/100
f 101/109/101 113/126/101 114/128/101 102/110/101
f 102/110/102 114/128/102 115/130/102 103/111/102
f 103/112/103 115/131/103 116/134/103 104/113/103
f 104/113/104 116/134/104 117/136/104 105/114/104
f 105/114/105 117/136/105 118/138/105 106/115/105
f 106/115/106 118/138/106 119/140/106 107/116/106
f 107/116/107 119/140/107 120/142/107 108/117/107
f 108/117/108 120/142/108 109/118/108 97/105/108
f 109/119/6 121/144/6 122/145/6 110/121/6
f 110/121/5 122/145/5 123/146/5 111/123/5
f 111/123/4 123/146/4 124/147/4 112/125/4
f 112/125/109 124/147/109 125/148/109 113/127/109
f 113/127/2 125/148/2 126/149/2 114/129/2
f 114/129/1 126/149/1 127/150/1 115/132/1
f 115/133/12 127/151/12 128/152/12 116/135/12
f 116/135/11 128/152/11 129/153/11 117/137/11
f 117/137/110 129/153/110 130/154/110 118/139/110
f 118/139/9 130/154/9 131/155/9 119/141/9
f 119/141/8 131/155/8 132/156/8 120/143/8
f 120/143/7 132/156/7 121/144/7 109/119/7
f 121/144/18 133/157/18 134/158/18 122/145/18
f 122/145/17 134/158/17 135/159/17 123/146/17
f 123/146/16 135/159/16 136/160/16 124/147/16
f 124/147/15 136/160/15 137/161/15 125/148/15
f 125/148/14 137/161/14 138/162/14 126/149/14
f 126/149/13 138/162/13 139/163/13 127/150/13
f 127/151/24 139/164/24 140/165/24 128/152/24
f 128/152/23 140/165/23 141/166/23 129/153/23
f 129/153/22 141/166/22 142/167/22 130/154/22
f 130/154/21 142/167/21 143/168/21 131/155/21
f 131/155/20 143/168/20 144/169/20 132/156/20
f 132/156/19 144/169/19 133/157/19 121/144/19
f 133/157/30 145/170/30 146/171/30 134/158/30
f 134/158/29 146/171/29 147/172/29 135/159/29
f 135/159/28 147/172/28 148/173/28 136/160/28
f 136/160/27 148/173/27 149/174/27 137/161/27
f 137/161/26 149/174/26 150/175/26 138/162/26
f 138/162/25 150/175/25 151/176/25 139/163/25
f 139/164/36 151/177/36 152/178/36 140/165/36
f 140/165/35 152/178/35 153/179/35 141/166/35
f 141/166/34 153/179/34 154/180/34 142/167/34
f 142/167/33 154/180/33 155/181/33 143/168/33
f 143/168/32 155/181/32 156/182/32 144/169/32
f 144/169/31 156/182/31 145/170/31 133/157/31
f 145/170/42 157/183/42 158/184/42 146/171/42
f 146/171/41 158/184/41 159/185/41 147/172/41
f 147/172/40 159/185/40 160/186/40 148/173/40
f 148/173/39 160/186/39 161/187/39 149/174/39
f 149/174/38 161/187/38 162/188/38 150/175/38
f 150/175/37 162/188/37 163/189/37 151/176/37
f 151/177/48 163/190/48 164/191/48 152/178/48
f 152/178/47 164/191/47 165/192/47 153/179/47
f 153/179/46 165/192/46 166/193/46 154/180/46
f 154/180/45 166/193/45 167/194/45 155/181/45
f 155/181/44 167/194/44 168/195/44 156/182/44
f 156/182/43 168/195/43 157/183/43 145/170/43
f 157/183/54 169/196/54 170/197/54 158/184/54
f 158/184/53 170/197/53 171/198/53 159/185/53
f 159/185/52 171/198/52 172/199/52 160/186/52
f 160/186/51 172/199/51 173/200/51 161/187/51
f 161/187/50 173/200/50 174/201/50 162/188/50
f 162/188/49 174/201/49 175/202/49 163/189/49
f 163/190/60 175/203/60 176/204/60 164/191/60
f 164/191/59 176/204/59 177/205/59 165/192/59
f 165/192/58 177/205/58 178/206/58 166/193/58
f 166/193/57 178/206/57 179/207/57 167/194/57
f 167/194/56 179/207/56 180/208/56 168/195/56
f 168/195/55 180/208/55 169/196/55 157/183/55
f 169/196/66 181/209/66 182/210/66 170/197/66
f 170/197/65 182/210/65 183/211/65 171/198/65
f 171/198/64 183/211/64 184/212/64 172/199/64
f 172/199/63 184/212/63 185/213/63 173/200/63
f 173/200/62 185/213/62 186/214/62 174/201/62
f 174/201/61 186/214/61 187/215/61 175/202/61
f 175/203/72 187/216/72 188/217/72 176/204/72
f 176/204/71 188/217/71 189/218/71 177/205/71
f 177/205/70 189/218/70 190/219/70 178/206/70
f 178/206/69 190/219/69 191/220/69 179/207/69
f 179/207/68 191/220/68 192/221/68 180/208/68
f 180/208/67 192/221/67 181/209/67 169/196/67
f 181/209/78 193/222/78 194/223/78 182/210/78
f 182/210/77 194/223/77 195/224/77 183/211/77
f 183/211/76 195/224/76 196/225/76 184/212/76
f 184/212/75 196/225/75 197/226/75 185/213/75
f 185/213/74 197/226/74 198/227/74 186/214/74
f 186/214/73 198/227/73 199/228/73 187/215/73
f 187/216/84 199/229/84 200/230/84 188/217/84
f 188/217/83 200/230/83 201/231/83 189/218/83
f 189/218/82 201/231/82 202/232/82 190/219/82
f 190/219/81 202/232/81 203/233/81 191/220/81
f 191/220/80 203/233/80 204/234/80 192/221/80
f 192/221/79 204/234/79 193/222/79 181/209/79
f 193/222/90 205/235/90 206/236/90 194/223/90
f 194/223/89 206/236/89 207/237/89 195/224/89
f 195/224/88 207/237/88 208/238/88 196/225/88
f 196/225/87 208/238/87 209/239/87 197/226/87
f 197/226/86 209/239/86 210/240/86 198/227/86
f 198/227/85 210/240/85 211/241/85 199/228/85
f 199/229/96 211/242/96 212/243/96 200/230/96
f 200/230/95 212/243/95 213/244/95 201/231/95
f 201/231/94 213/244/94 214/245/94 202/232/94
f 202/232/93 214/245/93 215/246/93 203/233/93
f 203/233/92 215/246/92 216/247/92 204/234/92
f 204/234/91 216/247/91 205/235/91 193/222/91
f 205/235/102 1/1/102 2/2/102 206/236/102
f 206/236/101 2/2/101 3/3/101 207/237/101
f 207/237/111 3/3/111 4/4/111 208/238/111
f 208/238/112 4/4/112 5/5/112 209/239/112
f 209/239/98 5/5/98 6/6/98 210/240/98
f 210/240/97 6/6/97 7/7/97 211/241/97
f 211/242/108 7/8/108 8/9/108 212/243/108
f 212/243/107 8/9/107 9/10/107 213/244/107
f 213/244/106 9/10/106 10/11/106 214/245/106
f 214/245/113 10/11/113 11/12/113 215/246/113
f 215/246/104 11/12/104 12/13/104 216/247/104
f 216/247/103 12/13/103 1/1/103 205/235/103
